# xmcd
#
# Track frame offsets: 
#        150
#        19220
#        50102
#
# Disc length: 1048 seconds
#
# Revision: 0
# Processed by: cddbd v1.5.1PL2 Copyright (c) Steve Scherf et al.
# Submitted via: ExactAudioCopy v0.95a5
#
DISCID=23041603
DTITLE=Pablo´n´ Cezanne - Sun dance
DYEAR=2002
DGENRE=Dance Hall
TTITLE0=radio edit
TTITLE1=extended
TTITLE2=the other mix
EXTD=
EXTT0=
EXTT1=
EXTT2=
PLAYORDER=
